<svg width="40" height="37" viewBox="0 0 40 37" xmlns="http://www.w3.org/2000/svg"><title>heart</title><defs><filter x="-50%" y="-50%" width="200%" height="200%" filterUnits="objectBoundingBox" id="a"><feMorphology radius="2" in="SourceAlpha" operator="dilate" result="shadowSpreadOuter1"/><feOffset in="shadowSpreadOuter1" result="shadowOffsetOuter1"/><feGaussianBlur stdDeviation="4.5" in="shadowOffsetOuter1" result="shadowBlurOuter1"/><feColorMatrix values="0 0 0 0 0 0 0 0 0 0 0 0 0 0 0 0 0 0 0.35 0" in="shadowBlurOuter1" result="shadowMatrixOuter1"/><feMerge><feMergeNode in="shadowMatrixOuter1"/><feMergeNode in="SourceGraphic"/></feMerge></filter></defs><path d="M18.57 5.51c0 2.04-2.063 3.94-2.097 3.972L10 15.722l-6.484-6.25C3.493 9.45 1.43 7.552 1.43 5.51c0-3.138 2.12-3.797 3.904-3.797 1.663 0 3.538 1.797 4.118 2.49.268.323.826.323 1.094 0 .58-.693 2.455-2.49 4.118-2.49 1.786 0 3.906.66 3.906 3.795v.002zm1.43 0C20 2.24 18.002.286 14.665.286c-1.953 0-3.783 1.54-4.665 2.41-.882-.87-2.712-2.41-4.665-2.41C1.998.286 0 2.24 0 5.51c0 2.677 2.455 4.92 2.545 5l6.964 6.718c.132.134.31.2.49.2s.356-.066.49-.2l6.953-6.697c.1-.1 2.556-2.342 2.556-5.02z" transform="translate(10 10)" filter="url(#a)" fill="#FFF" opacity=".7" fill-rule="evenodd"/></svg>
